<mxfile host="app.diagrams.net" modified="2023-05-25T08:18:38.973Z" agent="Mozilla/5.0 (Windows NT 10.0; Win64; x64) AppleWebKit/537.36 (KHTML, like Gecko) Chrome/113.0.0.0 Safari/537.36" etag="AQx4Bv0ZULcROIjSiKMF" version="21.3.3" type="github">
  <diagram id="R2lEEEUBdFMjLlhIrx00" name="Page-1">
    <mxGraphModel dx="1644" dy="740" grid="1" gridSize="10" guides="1" tooltips="1" connect="1" arrows="1" fold="1" page="1" pageScale="1" pageWidth="850" pageHeight="1100" math="0" shadow="0" extFonts="Permanent Marker^https://fonts.googleapis.com/css?family=Permanent+Marker">
      <root>
        <mxCell id="0" />
        <mxCell id="1" parent="0" />
        <mxCell id="dbm0gFQqj8mRLcyuXFgu-7" style="edgeStyle=orthogonalEdgeStyle;rounded=0;orthogonalLoop=1;jettySize=auto;html=1;exitX=0;exitY=0.5;exitDx=0;exitDy=0;" edge="1" parent="1" source="dbm0gFQqj8mRLcyuXFgu-1" target="dbm0gFQqj8mRLcyuXFgu-3">
          <mxGeometry relative="1" as="geometry" />
        </mxCell>
        <mxCell id="dbm0gFQqj8mRLcyuXFgu-8" style="edgeStyle=orthogonalEdgeStyle;rounded=0;orthogonalLoop=1;jettySize=auto;html=1;exitX=1;exitY=0.5;exitDx=0;exitDy=0;entryX=0;entryY=0.5;entryDx=0;entryDy=0;" edge="1" parent="1" source="dbm0gFQqj8mRLcyuXFgu-1" target="dbm0gFQqj8mRLcyuXFgu-4">
          <mxGeometry relative="1" as="geometry" />
        </mxCell>
        <mxCell id="dbm0gFQqj8mRLcyuXFgu-1" value="주문" style="rhombus;whiteSpace=wrap;html=1;" vertex="1" parent="1">
          <mxGeometry x="280" y="611" width="190" height="80" as="geometry" />
        </mxCell>
        <mxCell id="dbm0gFQqj8mRLcyuXFgu-3" value="회원" style="whiteSpace=wrap;html=1;aspect=fixed;" vertex="1" parent="1">
          <mxGeometry x="-10" y="611" width="80" height="80" as="geometry" />
        </mxCell>
        <mxCell id="dbm0gFQqj8mRLcyuXFgu-4" value="상품" style="whiteSpace=wrap;html=1;aspect=fixed;" vertex="1" parent="1">
          <mxGeometry x="660" y="611" width="80" height="80" as="geometry" />
        </mxCell>
        <mxCell id="dbm0gFQqj8mRLcyuXFgu-9" value="비밀번호" style="ellipse;whiteSpace=wrap;html=1;" vertex="1" parent="1">
          <mxGeometry x="-60" y="780" width="120" height="80" as="geometry" />
        </mxCell>
        <mxCell id="dbm0gFQqj8mRLcyuXFgu-10" value="이름" style="ellipse;whiteSpace=wrap;html=1;" vertex="1" parent="1">
          <mxGeometry x="140" y="780" width="120" height="80" as="geometry" />
        </mxCell>
        <mxCell id="dbm0gFQqj8mRLcyuXFgu-11" value="회원아이디" style="ellipse;whiteSpace=wrap;html=1;" vertex="1" parent="1">
          <mxGeometry x="-340" y="780" width="120" height="80" as="geometry" />
        </mxCell>
        <mxCell id="dbm0gFQqj8mRLcyuXFgu-13" value="" style="endArrow=none;html=1;rounded=0;entryX=0.5;entryY=1;entryDx=0;entryDy=0;exitX=0.5;exitY=0;exitDx=0;exitDy=0;" edge="1" parent="1" source="dbm0gFQqj8mRLcyuXFgu-9" target="dbm0gFQqj8mRLcyuXFgu-3">
          <mxGeometry width="50" height="50" relative="1" as="geometry">
            <mxPoint x="-40" y="810" as="sourcePoint" />
            <mxPoint x="10" y="760" as="targetPoint" />
          </mxGeometry>
        </mxCell>
        <mxCell id="dbm0gFQqj8mRLcyuXFgu-14" value="" style="endArrow=none;html=1;rounded=0;entryX=0.5;entryY=1;entryDx=0;entryDy=0;" edge="1" parent="1" target="dbm0gFQqj8mRLcyuXFgu-3">
          <mxGeometry width="50" height="50" relative="1" as="geometry">
            <mxPoint x="200" y="780" as="sourcePoint" />
            <mxPoint x="250" y="730" as="targetPoint" />
          </mxGeometry>
        </mxCell>
        <mxCell id="dbm0gFQqj8mRLcyuXFgu-15" value="" style="endArrow=none;html=1;rounded=0;exitX=0.5;exitY=0;exitDx=0;exitDy=0;" edge="1" parent="1" source="dbm0gFQqj8mRLcyuXFgu-11">
          <mxGeometry width="50" height="50" relative="1" as="geometry">
            <mxPoint x="-20" y="741" as="sourcePoint" />
            <mxPoint x="30" y="691" as="targetPoint" />
          </mxGeometry>
        </mxCell>
        <mxCell id="dbm0gFQqj8mRLcyuXFgu-16" value="상품명" style="ellipse;whiteSpace=wrap;html=1;" vertex="1" parent="1">
          <mxGeometry x="610" y="780" width="120" height="80" as="geometry" />
        </mxCell>
        <mxCell id="dbm0gFQqj8mRLcyuXFgu-17" value="재고량" style="ellipse;whiteSpace=wrap;html=1;" vertex="1" parent="1">
          <mxGeometry x="810" y="780" width="120" height="80" as="geometry" />
        </mxCell>
        <mxCell id="dbm0gFQqj8mRLcyuXFgu-18" value="상품번호" style="ellipse;whiteSpace=wrap;html=1;" vertex="1" parent="1">
          <mxGeometry x="330" y="780" width="120" height="80" as="geometry" />
        </mxCell>
        <mxCell id="dbm0gFQqj8mRLcyuXFgu-19" value="" style="endArrow=none;html=1;rounded=0;entryX=0.5;entryY=1;entryDx=0;entryDy=0;exitX=0.5;exitY=0;exitDx=0;exitDy=0;" edge="1" source="dbm0gFQqj8mRLcyuXFgu-16" parent="1">
          <mxGeometry width="50" height="50" relative="1" as="geometry">
            <mxPoint x="630" y="810" as="sourcePoint" />
            <mxPoint x="700" y="691" as="targetPoint" />
          </mxGeometry>
        </mxCell>
        <mxCell id="dbm0gFQqj8mRLcyuXFgu-20" value="" style="endArrow=none;html=1;rounded=0;entryX=0.5;entryY=1;entryDx=0;entryDy=0;" edge="1" parent="1">
          <mxGeometry width="50" height="50" relative="1" as="geometry">
            <mxPoint x="870" y="780" as="sourcePoint" />
            <mxPoint x="700" y="691" as="targetPoint" />
          </mxGeometry>
        </mxCell>
        <mxCell id="dbm0gFQqj8mRLcyuXFgu-21" value="" style="endArrow=none;html=1;rounded=0;exitX=0.5;exitY=0;exitDx=0;exitDy=0;" edge="1" source="dbm0gFQqj8mRLcyuXFgu-18" parent="1">
          <mxGeometry width="50" height="50" relative="1" as="geometry">
            <mxPoint x="650" y="741" as="sourcePoint" />
            <mxPoint x="700" y="691" as="targetPoint" />
          </mxGeometry>
        </mxCell>
        <mxCell id="dbm0gFQqj8mRLcyuXFgu-22" value="배송지" style="ellipse;whiteSpace=wrap;html=1;" vertex="1" parent="1">
          <mxGeometry x="600" y="280" width="120" height="80" as="geometry" />
        </mxCell>
        <mxCell id="dbm0gFQqj8mRLcyuXFgu-23" value="주문수량" style="ellipse;whiteSpace=wrap;html=1;" vertex="1" parent="1">
          <mxGeometry x="360" y="290" width="120" height="80" as="geometry" />
        </mxCell>
        <mxCell id="dbm0gFQqj8mRLcyuXFgu-24" value="주문번호" style="ellipse;whiteSpace=wrap;html=1;" vertex="1" parent="1">
          <mxGeometry x="130" y="270" width="120" height="80" as="geometry" />
        </mxCell>
        <mxCell id="dbm0gFQqj8mRLcyuXFgu-25" value="" style="endArrow=none;html=1;rounded=0;exitX=0.5;exitY=0;exitDx=0;exitDy=0;" edge="1" parent="1" source="dbm0gFQqj8mRLcyuXFgu-1">
          <mxGeometry width="50" height="50" relative="1" as="geometry">
            <mxPoint x="140" y="400" as="sourcePoint" />
            <mxPoint x="190" y="350" as="targetPoint" />
          </mxGeometry>
        </mxCell>
        <mxCell id="dbm0gFQqj8mRLcyuXFgu-26" value="" style="endArrow=none;html=1;rounded=0;exitX=0.5;exitY=0;exitDx=0;exitDy=0;" edge="1" parent="1" source="dbm0gFQqj8mRLcyuXFgu-1">
          <mxGeometry width="50" height="50" relative="1" as="geometry">
            <mxPoint x="375" y="420" as="sourcePoint" />
            <mxPoint x="425" y="370" as="targetPoint" />
          </mxGeometry>
        </mxCell>
        <mxCell id="dbm0gFQqj8mRLcyuXFgu-27" value="" style="endArrow=none;html=1;rounded=0;" edge="1" parent="1">
          <mxGeometry width="50" height="50" relative="1" as="geometry">
            <mxPoint x="380" y="610" as="sourcePoint" />
            <mxPoint x="660" y="360" as="targetPoint" />
          </mxGeometry>
        </mxCell>
        <mxCell id="dbm0gFQqj8mRLcyuXFgu-28" value="" style="ellipse;whiteSpace=wrap;html=1;" vertex="1" parent="1">
          <mxGeometry x="1040" y="780" width="120" height="80" as="geometry" />
        </mxCell>
        <mxCell id="dbm0gFQqj8mRLcyuXFgu-29" value="" style="endArrow=none;html=1;rounded=0;entryX=0.5;entryY=1;entryDx=0;entryDy=0;exitX=0.5;exitY=0;exitDx=0;exitDy=0;" edge="1" parent="1" source="dbm0gFQqj8mRLcyuXFgu-28" target="dbm0gFQqj8mRLcyuXFgu-4">
          <mxGeometry width="50" height="50" relative="1" as="geometry">
            <mxPoint x="890" y="759" as="sourcePoint" />
            <mxPoint x="720" y="670" as="targetPoint" />
          </mxGeometry>
        </mxCell>
        <mxCell id="dbm0gFQqj8mRLcyuXFgu-31" value="회원아이디" style="rounded=0;whiteSpace=wrap;html=1;" vertex="1" parent="1">
          <mxGeometry y="1000" width="120" height="60" as="geometry" />
        </mxCell>
        <mxCell id="dbm0gFQqj8mRLcyuXFgu-32" value="회원" style="rounded=0;whiteSpace=wrap;html=1;" vertex="1" parent="1">
          <mxGeometry x="-120" y="1000" width="120" height="60" as="geometry" />
        </mxCell>
        <mxCell id="dbm0gFQqj8mRLcyuXFgu-33" value="비밀번호" style="rounded=0;whiteSpace=wrap;html=1;" vertex="1" parent="1">
          <mxGeometry x="120" y="1000" width="120" height="60" as="geometry" />
        </mxCell>
        <mxCell id="dbm0gFQqj8mRLcyuXFgu-34" value="이름" style="rounded=0;whiteSpace=wrap;html=1;" vertex="1" parent="1">
          <mxGeometry x="240" y="1000" width="120" height="60" as="geometry" />
        </mxCell>
      </root>
    </mxGraphModel>
  </diagram>
</mxfile>
